<svg xmlns="http://www.w3.org/2000/svg" width="645" height="190"><path fill="#B69763" d="m82.456 181.141.001.002c24.036 2.519 34.934-3.744 49.345-7.524 23.159-6.08 28.455 15.559 28.455 15.559v-73.166c-8.917 35.678-40.015 62.551-77.801 65.129M160.257 74V.822s-5.296 21.654-28.455 15.571c-14.411-3.783-25.309-10.048-49.345-7.528l-.005.004C120.24 11.445 151.34 38.325 160.257 74M33.083 95.006c0-36.352 25.548-66.733 59.671-74.176a76.3 76.3 0 0 0-16.259-1.752C34.562 19.078.571 53.072.571 95.006c0 41.936 33.991 75.928 75.924 75.928 5.58 0 11.023-.608 16.259-1.75-34.123-7.444-59.671-37.825-59.671-74.178"/><path fill="#FFF" d="M228.584 80.114c-4.318 4.626-5.7 10.785-5.552 15.007.235 6.737 2.632 12.053 7.122 15.805 4.578 3.835 10.311 5.496 18.039 5.227 3.193-.111 7.416-.585 9.685-1.589 1.044-.51 1.182-.676 1.484-1.777.48-1.859.961-6.547.947-6.953-.034-.965-.479-1.053-.67-1.046-.599.02-.684.59-.752 1.044-.124.944-.716 3.257-1.759 4.427-2.15 2.362-5.615 2.796-9.04 2.915-11.933.418-19.408-9.164-19.74-18.665-.16-4.57.221-9.802 4.255-13.948 2.569-2.68 6.494-4.077 12.001-4.27 4.844-.169 8.913 1.247 10.644 2.633 1.328 1.045 2.267 3.125 2.338 5.182.021.618.049 1.388.737 1.364.652-.022.675-.847.692-1.398l.13-8.535c-.021-.567-.388-.733-.934-.812-2.263-.33-7.405-1.078-13.32-.987-7.067.101-12.402 2.186-16.307 6.376M295.894 73.873c-15.565 0-21.366 13.004-21.366 21.207 0 10.258 6.584 21.299 21.04 21.299 12.535 0 21.634-9.324 21.634-22.167 0-12.165-8.563-20.339-21.308-20.339m1.122 39.955c-9.94 0-16.882-8.33-16.882-20.255 0-10.709 5.894-17.366 15.383-17.366 7.718 0 16.024 6.103 16.024 19.509 0 17.236-12.099 18.112-14.525 18.112M404.682 77.266c2.822.1 3.254 1.076 3.572 1.789.233.572.295 1.413.295 1.819 0 .797.375.968.691.968.45 0 .578-.583.625-.804.005-.024.696-6.078.696-6.078a.77.77 0 0 0-.275-.61.53.53 0 0 0-.425-.12c-1.562.409-2.802.38-2.814.38l-20.488.002c-.305 0-1.115.006-1.115.691 0 .337.289.581.685.581.457 0 1.348.055 1.762.157 1.556.322 1.838.956 1.951 2.817v32.911c0 1.515-.453 2.369-1.349 2.543-.593.133-1.174.209-1.561.209-.472 0-.685.294-.685.583 0 .695.81.695 1.118.695h20.638c2.089 0 2.718 0 3.143-1.594.28-1.161.706-4.833.706-5.261 0-.395 0-1.061-.581-1.061-.552 0-.656.584-.737 1.014-.362 2.133-.975 3.122-2.258 3.663-1.34.575-3.66.575-5.044.575-5.272 0-7.961-.735-8.11-4.146V95.273l9.937.004c2.048 0 2.33.979 2.537 1.693.205.653.205 1.158.205 1.695 0 .448.248.737.629.737.578 0 .599-.441.623-.999l.657-6.68c0-.669-.401-.719-.524-.719-.311 0-.532.252-.868.635l-.136.151c-.399.451-.851.665-2.321.665h-10.739V77.266zM427.678 84.344c.127 3.618 2.242 6.718 8.258 11.323l2.482 1.893c4.897 3.763 6.446 5.903 6.567 9.388.121 3.409-2.477 6.786-7.334 6.955-1.985.069-7.797-.241-8.93-4.947-.178-.719-.203-1.447-.218-1.924-.012-.299-.03-.845-.663-.823-.582.021-.625.729-.646 1.109-.002.014-.066 5.698-.066 5.698.048 1.437.101 1.828 1.019 2.242l.002-.002c2.058.927 5.537 1.286 8.408 1.185 3.24-.113 6.469-1.162 8.645-2.629 3.912-2.641 4.676-6.441 4.578-9.239-.145-4.145-2.282-7.495-9.084-12.478-.002.001-1.539-1.124-1.539-1.124-5.315-4.055-7.078-5.498-7.178-8.331-.123-3.559 2.774-6.279 6.555-6.412 4.509-.156 7.375 1.641 7.845 2.439.311.512.68 1.908.76 2.547.069.417.151.928.717.909.631-.023.603-.994.586-1.514l.006-5.673c-.024-.639-.58-.619-.817-.611-.418.016-.83-.104-1.826-.206-1.951-.235-4.449-.377-6.34-.311-6.882.24-11.996 4.528-11.787 10.536M524.827 73.873c-15.565 0-21.364 13.004-21.364 21.207 0 10.258 6.584 21.299 21.043 21.299 12.532 0 21.629-9.324 21.629-22.167 0-12.165-8.562-20.339-21.308-20.339m1.123 39.955c-9.94 0-16.881-8.33-16.881-20.255 0-10.709 5.894-17.366 15.383-17.366 7.72 0 16.033 6.103 16.033 19.509 0 17.236-12.108 18.112-14.535 18.112M566.255 77.288c-5.679 3.568-9.07 10.236-9.07 17.833 0 7.28 3.482 12.879 6.464 15.46 4.398 3.848 10.383 5.798 17.789 5.798 3.336 0 8.104-.642 11.484-2.442.802-.479.826-.755.826-3.12V99.252c.103-1.805.611-2.569 1.875-2.802l1.296-.151c.401 0 .691-.248.691-.583 0-.683-.787-.683-1.12-.683h-11.302c-.334 0-1.117 0-1.117.683 0 .335.294.583.695.583.487 0 1.367.051 1.752.147 1.938.532 2.217.896 2.217 5.271v9.1c0 .784-.297 1.308-.94 1.646-1.297.756-3.935 1.094-5.98 1.094-5.341 0-10.002-1.901-13.851-5.657-1.94-1.883-5.607-7.358-5.607-14.652 0-5.802 1.947-10.813 5.206-13.403 3.883-3.053 7.729-3.474 11.306-3.474 6.626 0 10.991 2.121 12.375 4.224.897 1.43 1.058 3.087 1.082 3.407.049.466.114 1.044.63 1.044.74 0 .74-.8.74-1.381l.374-7.597c0-.312-.153-.68-.872-.747-1.433-.061-3.278-.291-4.305-.531-.466-.1-4.58-.917-8.258-.917-4.143 0-9.523.386-14.38 3.415M628.382 99.836c0 .003 5.161 13.538 5.161 13.538.089.23.155.479.155.631 0 .497-.261.532-.32.549-.337.079-.545.308-.545.624 0 .536.602.565 1.598.612l8.67-.002c1.1 0 1.328-.32 1.328-.637 0-.583-.596-.583-.791-.583-.781 0-1.456-.1-2.058-.309-1.037-.292-2.616-1.225-4.526-5.957-2.382-5.934-12.523-32.343-12.523-32.343-.66-1.717-.912-2.086-1.414-2.086-.526 0-.781.481-1.428 2.259l-12.176 33.426c-1.029 2.858-2.06 4.571-4.289 4.858-.004.002-1.517.105-1.517.105-.439 0-.746.243-.746.583 0 .695.893.695 1.275.695h10.234c.922 0 1.061-.435 1.061-.695 0-.217-.104-.583-.791-.583h-.543c-.682 0-1.77-.347-1.77-1.286 0-.685 4.052-13.399 4.052-13.399zm-11.406-2.446 4.881-14.869 5.247 14.869zM487.733 77.552c3.187.059 4.535.491 5.348 1.71.552.847.714 1.212.884 1.598.131.352.325.707.778.707.254 0 .531-.191.531-.738 0-.609-1.232-5.766-1.232-5.766-.192-.746-.327-1.239-.747-1.081l-.677.266c-.471.169-.817.303-1.678.372h-26.506c-.863-.069-1.207-.203-1.678-.374l-.677-.264c-.42-.16-.555.335-.747 1.079 0 0-1.232 5.159-1.232 5.768 0 .545.276.738.531.738.453 0 .647-.355.776-.709.17-.384.332-.749.886-1.596.811-1.219 2.161-1.653 5.35-1.71l7.566-.007v22.313c0 5.094 0 9.492-.267 11.731-.225 1.636-.506 2.555-1.344 2.723-.582.129-1.164.207-1.56.207-.506 0-.686.314-.686.581 0 .688.779.688 1.113.688h10.459c.334 0 1.116 0 1.116-.688 0-.267-.182-.581-.688-.581-.393 0-.971-.078-1.547-.207-.846-.168-1.121-1.052-1.357-2.728-.264-2.234-.264-6.632-.264-11.726V77.545zM329.803 74.61c-.73 0-1.332 0-1.332.637 0 .417.237.558.69.63.297.047.578.109 1.609.261 1.439.254 1.836.638 1.889 4.104l.017 27.426c0 4.886-.279 6.234-1.406 6.554-.699.233-1.582.313-2.127.313-.508 0-.689.307-.689.573 0 .692.726.692 1.117.692h10.818c.367 0 1.229 0 1.229-.692 0-.277-.182-.573-.69-.573-.146 0-1.459-.012-2.615-.315-1.168-.345-1.785-1.366-1.897-5.972l-.677-25.132c3.873 4.227 26.935 28.872 27.513 29.397 3.061 3.068 3.559 3.496 4.083 3.496.673 0 .9-.588.9-4.068l-.055-31.391c0-3.206.233-4.187 1.776-4.505.623-.161.976-.161 1.234-.161.623 0 .846-.339.846-.629 0-.637-.795-.637-1.221-.637h-10.123c-.5 0-1.332 0-1.332.637 0 .417.232.629.687.629.354 0 1.581.049 2.573.262 1.443.376 1.834 1.375 1.886 4.841l-.027 26.534c-.871-.962-28.465-31.131-28.465-31.131-.756-.81-1.459-1.78-2.193-1.78zM236.365 142.12c-.323-2.367-2.365-3.333-4.57-3.333-4.974 0-6.479 4.516-6.479 8.493 0 3.982 1.505 8.497 6.479 8.497 2.151 0 4.301-1.076 4.785-3.495h1.882c-.564 3.252-3.548 5.108-6.667 5.108-5.888 0-8.361-4.733-8.361-10.11 0-5.322 2.501-10.106 8.361-10.106 3.171 0 6.183 1.451 6.452 4.946zM252.628 150.239c0 2.5-1.291 5.673-4.544 5.673s-4.543-3.173-4.543-5.673 1.291-5.671 4.543-5.671 4.544 3.171 4.544 5.671m-4.544-7.152c-4.301 0-6.29 3.603-6.29 7.152 0 3.547 1.989 7.151 6.29 7.151s6.291-3.604 6.291-7.151c0-3.549-1.99-7.152-6.291-7.152M260.073 156.987h-1.613V146.53c0-1.049-.081-2.125-.134-3.039h1.666l.081 1.99.053.053c.942-1.667 2.474-2.447 4.223-2.447 4.406 0 4.758 3.899 4.758 5.456v8.444h-1.614v-8.711c0-2.338-1.345-3.708-3.549-3.708-2.66 0-3.871 2.228-3.871 4.648zM275.449 156.987h-1.613V146.53c0-1.049-.081-2.125-.134-3.039h1.666l.081 1.99.053.053c.942-1.667 2.473-2.447 4.221-2.447 4.41 0 4.76 3.899 4.76 5.456v8.444h-1.615v-8.711c0-2.338-1.343-3.708-3.549-3.708-2.66 0-3.87 2.228-3.87 4.648zM290.046 149.135c.216-2.364 1.613-4.567 4.247-4.567 2.797 0 4.193 1.962 4.381 4.567zm10.376 1.481c0-4.223-1.641-7.529-6.155-7.529-4.005 0-6.022 3.496-6.022 7.152 0 3.683 1.883 7.151 5.913 7.151 3.255 0 5.269-1.478 6.101-4.705h-1.691c-.404 1.854-1.991 3.227-3.899 3.227-3.307 0-4.623-2.42-4.678-5.296zM313.352 147.63c-.135-2.068-1.454-3.062-3.684-3.062-2.472 0-4.006 2.58-4.006 5.642 0 3.094 1.534 5.702 4.006 5.702 2.096 0 3.549-1.292 3.684-3.146h1.747c-.432 3.093-2.206 4.624-5.27 4.624-4.033 0-5.914-3.468-5.914-7.151 0-3.656 2.016-7.152 6.021-7.152 2.769 0 5.028 1.667 5.163 4.543zM320.339 144.97h-2.689v-1.479h2.689v-2.877l1.614-.698v3.575h3.064v1.479h-3.064v9.031c-.028 1.238.618 1.911 1.853 1.911.485 0 .97-.028 1.399-.162v1.397c-.51.136-1.102.243-1.64.243-3.414 0-3.226-2.179-3.226-4.007zM337.524 156.987v-19.409h1.746v17.796h9.761v1.613zM352.899 143.491h1.612v13.495h-1.612zm-.135-5.913h1.882v2.013h-1.882zM360.936 156.987V144.97h-2.717v-1.479h2.717v-2.877c0-2.312.942-3.359 3.253-3.359.513 0 1.048.189 1.532.297v1.288a6.4 6.4 0 0 0-.994-.106c-2.206 0-2.26 1.1-2.179 3.038v1.719h3.065v1.479h-3.065v12.017zM369.537 149.135c.216-2.364 1.614-4.567 4.248-4.567 2.795 0 4.193 1.962 4.381 4.567zm10.378 1.481c0-4.223-1.641-7.529-6.158-7.529-4.004 0-6.021 3.496-6.021 7.152 0 3.683 1.882 7.151 5.915 7.151 3.252 0 5.266-1.478 6.101-4.705h-1.693c-.402 1.854-1.99 3.227-3.898 3.227-3.307 0-4.624-2.42-4.676-5.296zM391.789 153.223c0-3.389 4.786-2.957 7.071-3.038.162 2.822-.51 5.727-4.032 5.727-1.641 0-3.039-.861-3.039-2.689m7.071-4.517c-1.962.109-4.301-.163-6.103.619-1.612.672-2.715 2.07-2.715 3.898 0 2.636 1.99 4.167 4.489 4.167 1.829 0 3.629-1.075 4.222-2.206l.082-.188h.053l.053 1.991h1.666c-.053-.915-.162-1.991-.134-3.039v-6.399c.053-3.088-1.801-4.462-4.785-4.462-2.58 0-4.649 1.049-5.053 3.818h1.72c.213-1.828 1.612-2.337 3.305-2.337 1.909 0 3.038.699 3.2 2.9zM406.818 156.987h-1.615V146.53c0-1.049-.081-2.125-.134-3.039h1.668l.081 1.99.054.053c.939-1.667 2.472-2.447 4.22-2.447 4.408 0 4.757 3.899 4.757 5.456v8.444h-1.613v-8.711c0-2.338-1.344-3.708-3.547-3.708-2.663 0-3.871 2.228-3.871 4.648zM429.803 149.916c0 3.066-1.076 5.996-4.599 5.996-3.091 0-3.817-3.415-3.817-5.915 0-2.582.995-5.429 4.057-5.429 3.148 0 4.359 2.605 4.359 5.348m.135 7.071h1.665c-.054-.915-.135-1.991-.135-3.039v-16.37h-1.611v7.903l-.054.053c-.944-1.586-2.823-2.447-4.624-2.447-4.008 0-5.539 3.603-5.539 7.098 0 3.388 1.531 7.205 5.539 7.205 1.88 0 3.52-.889 4.624-2.501l.054.107zM443.337 156.987v-19.409h1.749v17.796h9.757v1.613zM458.902 149.135c.216-2.364 1.613-4.567 4.248-4.567 2.795 0 4.192 1.962 4.382 4.567zm10.379 1.481c0-4.223-1.643-7.529-6.158-7.529-4.005 0-6.023 3.496-6.023 7.152 0 3.683 1.883 7.151 5.915 7.151 3.254 0 5.269-1.478 6.104-4.705h-1.696c-.402 1.854-1.989 3.227-3.898 3.227-3.305 0-4.623-2.42-4.677-5.296zM474.12 153.223c0-3.389 4.783-2.957 7.068-3.038.162 2.822-.511 5.727-4.033 5.727-1.639 0-3.035-.861-3.035-2.689m7.068-4.517c-1.961.109-4.3-.163-6.103.619-1.613.672-2.713 2.07-2.713 3.898 0 2.636 1.989 4.167 4.489 4.167 1.828 0 3.629-1.075 4.221-2.206l.079-.188h.052l.056 1.991h1.666c-.054-.915-.159-1.991-.132-3.039v-6.399c.053-3.088-1.803-4.462-4.787-4.462-2.581 0-4.65 1.049-5.054 3.818h1.72c.216-1.828 1.616-2.337 3.307-2.337 1.91 0 3.039.699 3.199 2.9zM489.306 156.987h-1.612V146.53c.027-1.049-.081-2.125-.133-3.039h1.666l.079 1.99h.056c.484-1.37 1.69-2.339 3.038-2.394.536-.024 1.074 0 1.612.027v1.559c-.324-.025-.672-.105-.995-.105-2.392 0-3.655 1.718-3.711 4.3zM499.119 156.987h-1.614V146.53c0-1.049-.079-2.125-.133-3.039h1.666l.081 1.99.052.053c.945-1.667 2.474-2.447 4.223-2.447 4.408 0 4.759 3.899 4.759 5.456v8.444h-1.615v-8.711c0-2.338-1.345-3.708-3.548-3.708-2.659 0-3.871 2.228-3.871 4.648zM512.883 143.491h1.612v13.495h-1.612zm-.134-5.913h1.881v2.013h-1.881zM520.893 156.987h-1.611V146.53c0-1.049-.081-2.125-.136-3.039h1.669l.078 1.99.057.053c.94-1.667 2.472-2.447 4.219-2.447 4.409 0 4.758 3.899 4.758 5.456v8.444h-1.612v-8.711c0-2.338-1.346-3.708-3.549-3.708-2.662 0-3.873 2.228-3.873 4.648zM544.06 149.942c0 2.634-1.183 5.513-4.271 5.513-2.961 0-4.226-2.985-4.226-5.458s1.239-5.429 4.171-5.429c2.901 0 4.326 2.793 4.326 5.374m0-4.461-.055.106c-1.075-1.558-2.469-2.5-4.432-2.5-4.115 0-5.755 3.387-5.755 7.044 0 3.71 1.745 6.8 5.807 6.8 1.747 0 3.601-.94 4.38-2.526h.055v2.526c-.055 2.259-1.989 3.738-4.088 3.738-1.72 0-3.628-.538-3.815-2.149h-1.746c0 2.794 2.901 3.628 5.349 3.628 1.263 0 1.988-.107 3.065-.62 2.98-1.397 2.849-4.219 2.849-6.908v-8.09c0-1.049.079-2.125.131-3.039h-1.665z"/></svg>