<svg xmlns="http://www.w3.org/2000/svg" version="1.1" xmlns:xlink="http://www.w3.org/1999/xlink" xmlns:svgjs="http://svgjs.dev/svgjs" width="400" height="4320" preserveAspectRatio="none" viewBox="0 0 400 4320"><g mask="url(&quot;#SvgjsMask1017&quot;)" fill="none"><rect width="400" height="4320" x="0" y="0" fill="rgba(255, 255, 255, 1)"></rect><path d="M 0,895 C 26.8,837.8 80.4,608.6 134,609 C 187.6,609.4 214.8,923.6 268,897 C 321.2,870.4 373.6,560.2 400,476L400 4320L0 4320z" fill="rgba(255, 110, 0, 1)"></path><path d="M 0,1908 C 26.8,2000.6 80.4,2394.8 134,2371 C 187.6,2347.2 214.8,1696.4 268,1789 C 321.2,1881.6 373.6,2625 400,2834L400 4320L0 4320z" fill="rgba(255, 194, 0, 1)"></path><path d="M 0,3584 C 8,3683.8 24,4098.2 40,4083 C 56,4067.8 64,3523.8 80,3508 C 96,3492.2 104,4069.4 120,4004 C 136,3938.6 144,3124.2 160,3181 C 176,3237.8 184,4292.4 200,4288 C 216,4283.6 224,3230.4 240,3159 C 256,3087.6 264,3891.2 280,3931 C 296,3970.8 304,3388.8 320,3358 C 336,3327.2 344,3769.6 360,3777 C 376,3784.4 392,3471.4 400,3395L400 4320L0 4320z" fill="rgba(255, 230, 0, 1)"></path></g><defs><mask id="SvgjsMask1017"><rect width="400" height="4320" fill="#ffffff"></rect></mask></defs></svg>